<svg xmlns="http://www.w3.org/2000/svg" width="1536" height="1024" viewBox="0 0 1536 1024" role="img" aria-labelledby="title desc">
  <title id="title">Pawbie Warm Matte System application moodboard</title>
  <desc id="desc">Four-panel application moodboard using official Pawbie assets across app, website, print, and packaging contexts.</desc>
  <defs>
    <filter id="softShadow" x="-20%" y="-20%" width="140%" height="140%">
      <feDropShadow dx="0" dy="18" stdDeviation="22" flood-color="#4A332C" flood-opacity="0.13"/>
    </filter>
    <clipPath id="phoneClip"><rect x="72" y="58" width="238" height="402" rx="34"/></clipPath>
    <clipPath id="phoneClip2"><rect x="340" y="78" width="238" height="382" rx="34"/></clipPath>
    <clipPath id="laptopClip"><rect x="900" y="86" width="450" height="286" rx="18"/></clipPath>
    <clipPath id="tabletClip"><rect x="790" y="190" width="240" height="232" rx="20"/></clipPath>
    <clipPath id="miniPhoneClip"><rect x="1286" y="222" width="118" height="220" rx="22"/></clipPath>
    <clipPath id="posterClip"><rect x="100" y="568" width="466" height="356" rx="4"/></clipPath>
    <clipPath id="boxTopClip"><path d="M960 602 L1372 654 L1248 822 L836 768 Z"/></clipPath>
  </defs>

  <rect width="1536" height="1024" fill="#FBF7F0"/>
  <path d="M0 512H1536M768 0V1024" stroke="#FFFCF8" stroke-width="12"/>

  <!-- App panel -->
  <g>
    <rect x="34" y="30" width="680" height="452" rx="30" fill="#F6EDE2"/>
    <rect x="72" y="58" width="238" height="402" rx="34" fill="#111" filter="url(#softShadow)"/>
    <rect x="84" y="72" width="214" height="374" rx="28" fill="#FFFCF8"/>
    <g clip-path="url(#phoneClip)">
      <circle cx="128" cy="118" r="18" fill="#F2CF57"/>
      <path d="M132 190C190 108 252 140 292 92V242H132Z" fill="#D8E5F4" opacity="0.78"/>
      <ellipse cx="194" cy="212" rx="86" ry="64" fill="#F1DEC9"/>
      <image href="../../../assets/pawbie-character/pawbie-3d-white.png" x="76" y="126" width="360" height="203" preserveAspectRatio="xMinYMid slice"/>
      <rect x="106" y="286" width="170" height="70" rx="18" fill="#F6EDE2" opacity="0.94"/>
      <circle cx="134" cy="321" r="18" fill="#D8E5F4"/>
      <circle cx="184" cy="321" r="18" fill="#FFC5E6"/>
      <circle cx="234" cy="321" r="18" fill="#A87545"/>
      <rect x="106" y="374" width="72" height="52" rx="12" fill="#EEE3D6"/>
      <rect x="190" y="374" width="72" height="52" rx="12" fill="#F1DEC9"/>
    </g>
    <rect x="340" y="78" width="238" height="382" rx="34" fill="#FFFCF8" filter="url(#softShadow)"/>
    <g clip-path="url(#phoneClip2)">
      <path d="M400 144C438 104 500 116 520 156C534 184 514 214 462 220C410 226 364 204 374 174C378 164 386 154 400 144Z" fill="#F1DEC9"/>
      <image href="../../../assets/pawbie-character/pawbie-3d-pink.png" x="354" y="126" width="360" height="203" preserveAspectRatio="xMinYMid slice"/>
      <rect x="374" y="266" width="68" height="20" rx="10" fill="#A87545"/>
      <rect x="454" y="266" width="54" height="20" rx="10" fill="#EEE3D6"/>
      <rect x="520" y="266" width="54" height="20" rx="10" fill="#EEE3D6"/>
      <rect x="374" y="308" width="168" height="86" rx="14" fill="#F6EDE2" stroke="#E2D6C8"/>
      <path d="M392 360C422 336 438 368 464 344C494 318 508 330 532 306" fill="none" stroke="#A87545" stroke-width="4" opacity="0.55"/>
      <rect x="374" y="414" width="76" height="54" rx="12" fill="#EEE3D6"/>
      <rect x="464" y="414" width="76" height="54" rx="12" fill="#F1DEC9"/>
    </g>
  </g>

  <!-- Website panel -->
  <g>
    <rect x="822" y="30" width="680" height="452" rx="30" fill="#F6EDE2"/>
    <rect x="900" y="86" width="450" height="286" rx="18" fill="#1F1916" filter="url(#softShadow)"/>
    <rect x="914" y="104" width="422" height="244" rx="8" fill="#FFFCF8"/>
    <g clip-path="url(#laptopClip)">
      <path d="M914 212C1018 118 1134 156 1220 104V260H914Z" fill="#D8E5F4" opacity="0.7"/>
      <path d="M914 282C1028 226 1144 290 1336 202V348H914Z" fill="#EEE3D6"/>
      <circle cx="1240" cy="160" r="22" fill="#F2CF57"/>
      <image href="../../../assets/pawbie-character/pawbie-3d-white.png" x="1026" y="122" width="520" height="293" preserveAspectRatio="xMinYMid slice"/>
      <rect x="956" y="284" width="82" height="54" rx="12" fill="#F6EDE2"/>
      <rect x="1058" y="284" width="82" height="54" rx="12" fill="#F1DEC9"/>
      <rect x="1160" y="284" width="82" height="54" rx="12" fill="#EEE3D6"/>
      <rect x="1262" y="284" width="82" height="54" rx="12" fill="#F6EDE2"/>
    </g>
    <rect x="780" y="184" width="260" height="248" rx="26" fill="#111" filter="url(#softShadow)"/>
    <rect x="792" y="198" width="236" height="220" rx="18" fill="#FFFCF8"/>
    <g clip-path="url(#tabletClip)">
      <path d="M792 270C850 212 920 236 1028 190V312H792Z" fill="#D8E5F4" opacity="0.68"/>
      <image href="../../../assets/pawbie-character/pawbie-3d-blue.png" x="812" y="244" width="290" height="164" preserveAspectRatio="xMinYMid slice"/>
      <rect x="822" y="350" width="60" height="48" rx="10" fill="#F6EDE2"/>
      <rect x="896" y="350" width="60" height="48" rx="10" fill="#F1DEC9"/>
      <rect x="970" y="350" width="60" height="48" rx="10" fill="#EEE3D6"/>
    </g>
    <rect x="1286" y="222" width="118" height="220" rx="22" fill="#111" filter="url(#softShadow)"/>
    <rect x="1294" y="232" width="102" height="200" rx="16" fill="#FFFCF8"/>
    <g clip-path="url(#miniPhoneClip)">
      <path d="M1294 286C1324 256 1362 268 1396 244V328H1294Z" fill="#D8E5F4" opacity="0.68"/>
      <image href="../../../assets/pawbie-character/pawbie-3d-white.png" x="1292" y="260" width="170" height="96" preserveAspectRatio="xMinYMid slice"/>
      <rect x="1310" y="360" width="68" height="10" rx="5" fill="#E2D6C8"/>
      <rect x="1310" y="382" width="58" height="10" rx="5" fill="#E2D6C8"/>
      <circle cx="1304" cy="364" r="8" fill="#D8E5F4"/>
      <circle cx="1304" cy="386" r="8" fill="#FFC5E6"/>
    </g>
  </g>

  <!-- Poster panel -->
  <g>
    <rect x="34" y="542" width="680" height="452" rx="30" fill="#F6EDE2"/>
    <rect x="100" y="568" width="466" height="356" rx="4" fill="#FFFCF8" filter="url(#softShadow)"/>
    <g clip-path="url(#posterClip)">
      <path d="M128 642C176 588 254 620 286 566C334 660 276 734 166 718C126 712 102 682 128 642Z" fill="#D8E5F4"/>
      <path d="M352 698C424 632 488 690 566 626V824H352Z" fill="#F1DEC9" opacity="0.82"/>
      <circle cx="506" cy="638" r="28" fill="#F2CF57"/>
      <image href="../../../assets/pawbie-character/pawbie-2d-graphic.png" x="150" y="612" width="320" height="284" preserveAspectRatio="xMidYMid meet"/>
      <rect x="136" y="866" width="104" height="12" rx="6" fill="#E2D6C8"/>
      <rect x="272" y="866" width="104" height="12" rx="6" fill="#E2D6C8"/>
      <rect x="408" y="866" width="104" height="12" rx="6" fill="#E2D6C8"/>
      <circle cx="120" cy="872" r="10" fill="#A87545" opacity="0.72"/>
      <circle cx="256" cy="872" r="10" fill="#FFC5E6"/>
      <circle cx="392" cy="872" r="10" fill="#D8E5F4"/>
    </g>
  </g>

  <!-- Packaging panel -->
  <g>
    <rect x="822" y="542" width="680" height="452" rx="30" fill="#F6EDE2"/>
    <path d="M836 768L1248 822L1372 654L960 602Z" fill="#FFFCF8" stroke="#E2D6C8" stroke-width="2" filter="url(#softShadow)"/>
    <path d="M836 768L1248 822V900L836 844Z" fill="#F6EDE2" stroke="#E2D6C8" stroke-width="2"/>
    <path d="M1248 822L1372 654V732L1248 900Z" fill="#EEE3D6" stroke="#E2D6C8" stroke-width="2"/>
    <path d="M934 615L1018 626L892 788L836 768Z" fill="#A87545"/>
    <g clip-path="url(#boxTopClip)">
      <path d="M1002 668C1080 590 1180 644 1300 602V774H1002Z" fill="#D8E5F4" opacity="0.72"/>
      <circle cx="1282" cy="646" r="26" fill="#F2CF57"/>
      <image href="../../../assets/pawbie-character/pawbie-3d-white.png" x="1010" y="628" width="500" height="282" preserveAspectRatio="xMinYMid slice"/>
    </g>
    <path d="M1120 878C1200 826 1292 860 1372 800V900H1120Z" fill="#FFC5E6" opacity="0.62"/>
    <g fill="none" stroke="#A87545" stroke-width="2" opacity="0.24">
      <path d="M926 816h18v18h-18zM976 824l12 10 12-10M1034 836c8-14 24-14 32 0M1096 846h20v14h-20zM1158 858l10-12 10 12M1216 870h18v18h-18z"/>
    </g>
  </g>
</svg>
